# xmcd CD database file generated by OrangeCD 5.0
#
# Track frame offsets:
#	150
#	9810
#	24031
#	42427
#	57752
#	72799
#	86166
#	100909
#	115465
#	129851
#	146483
#	174581
#
# Disc length: 2481 seconds
#
# Revision: 0
# Processed by: cddbd v1.4PL0 Copyright (c) Steve Scherf et al.
# Submitted via: OrangeCD 5.0
#
DISCID=9209af0c
DTITLE=The Volebeats - Country Favorites
DYEAR=2003
DGENRE=
TTITLE0=I Had To Tell You
TTITLE1=One I Love
TTITLE2=Knowing Me Knowing You
TTITLE3=Standing Next To You
TTITLE4=318
TTITLE5=Almost Crying
TTITLE6=Hold On
TTITLE7=Too Much Love
TTITLE8=Die By The Sword
TTITLE9=Hamtramck Mama
TTITLE10=Maggot Brain
TTITLE11=Manon
EXTD=
EXTT0=
EXTT1=
EXTT2=
EXTT3=
EXTT4=
EXTT5=
EXTT6=
EXTT7=
EXTT8=
EXTT9=
EXTT10=
EXTT11=
PLAYORDER=
